<?xml version="1.0" encoding="utf-8"?>
<!-- Generator: Adobe Illustrator 19.1.0, SVG Export Plug-In . SVG Version: 6.00 Build 0)  -->
<svg version="1.1" id="Layer_1" xmlns="http://www.w3.org/2000/svg" xmlns:xlink="http://www.w3.org/1999/xlink" x="0px" y="0px"
	 viewBox="0 0 18 18" style="enable-background:new 0 0 18 18;" xml:space="preserve">
<style type="text/css">
	.st0{fill:#1F4980;}
</style>
<g>
	<g>
		<path class="st0" d="M18,9c0,5-4,9-9,9c-5,0-9-4-9-9c0-5,4-9,9-9C14,0,18,4,18,9z M2.2,9.8c0.4,3.6,3.5,5.9,6.1,6
			c-0.2-0.5-0.1-0.9,0.2-1.2c0.3-0.3,0.8-0.3,1.1,0c0.4,0.3,0.5,0.7,0.3,1.3c3.1-0.3,5.8-3,6-6c-0.6,0.2-1,0.1-1.2-0.2
			c-0.2-0.3-0.3-0.8,0-1.1c0.1-0.2,0.3-0.4,0.6-0.4c0.2,0,0.5,0,0.7,0.1c-0.3-3.3-3.3-5.8-6-6c0.2,0.5,0.1,1-0.2,1.2
			c-0.3,0.2-0.8,0.3-1.1,0C8.1,3.1,8,2.8,8.2,2.2c-3.1,0.3-5.8,3-6,6c0.6-0.2,1-0.1,1.3,0.3c0.2,0.3,0.2,0.8,0,1.1
			C3.1,9.9,2.7,10,2.2,9.8z"/>
		<path class="st0" d="M5.3,12.7c0-0.1,0.1-0.1,0.1-0.2C6.2,11,7,9.5,7.8,8c0-0.1,0.1-0.2,0.2-0.2c1.5-0.8,3-1.6,4.5-2.4
			c0,0,0.1,0,0.2-0.1c0,0.1-0.1,0.1-0.1,0.2C11.8,7,11,8.5,10.2,10c0,0.1-0.1,0.2-0.2,0.2c-1.5,0.8-3,1.6-4.5,2.4
			C5.4,12.6,5.4,12.7,5.3,12.7z M9.9,9c0-0.5-0.4-0.9-0.9-0.9C8.5,8.1,8.1,8.5,8.1,9c0,0.5,0.4,0.9,0.9,0.9C9.5,9.9,9.9,9.5,9.9,9z"
			/>
	</g>
</g>
</svg>
